<svg width="800" height="400" viewBox="0 0 800 400" xmlns="http://www.w3.org/2000/svg">
  <style>
    /* Default hover effect (optional, handled by React mostly) */
    use:hover {
      stroke: #333;
      stroke-width: 1px;
    }
    
    /* Text styling */
    .seat-label {
      font-family: Arial, sans-serif;
      font-size: 7px;
      fill: #555;
      text-anchor: middle;
      dominant-baseline: central;
      pointer-events: none; /* Crucial: lets mouse events pass to the seat ID below */
    }
  </style>

  <defs>
    <!-- Economy Seat Definition -->
    <!-- Note: Main Cushion has NO FILL. It inherits from the <use> tag. -->
    <g id="seat-eco">
      <rect x="0" y="0" width="16" height="14" rx="3" ry="3" stroke="#999" stroke-width="1"/>
      <!-- Armrests (Fixed Grey) -->
      <rect x="-2" y="-2" width="12" height="2" rx="1" fill="#bdc3c7"/>
      <rect x="-2" y="14" width="12" height="2" rx="1" fill="#bdc3c7"/>
      <!-- Headrest (Fixed Grey) -->
      <rect x="12" y="2" width="4" height="10" rx="1" fill="#ecf0f1"/>
    </g>

    <!-- Business Seat Definition -->
    <g id="seat-biz">
      <rect x="0" y="0" width="20" height="20" rx="4" ry="4" stroke="#999" stroke-width="1"/>
      <!-- Armrests -->
      <rect x="-3" y="-3" width="16" height="3" rx="1" fill="#7f8c8d"/>
      <rect x="-3" y="20" width="16" height="3" rx="1" fill="#7f8c8d"/>
      <!-- Headrest -->
      <rect x="16" y="3" width="5" height="14" rx="2" fill="#bdc3c7"/>
    </g>
  </defs>

  <!-- ================= PLANE BODY ================= -->
  
  <path d="M 280 145 L 220 20 L 320 30 L 400 145 Z" fill="#ecf0f1" stroke="#bdc3c7" stroke-width="2"/>
  <path d="M 280 255 L 220 380 L 320 370 L 400 255 Z" fill="#ecf0f1" stroke="#bdc3c7" stroke-width="2"/>
  <path d="M 680 155 L 720 100 L 760 105 L 740 160 Z" fill="#ecf0f1" stroke="#bdc3c7" stroke-width="2"/>
  <path d="M 680 245 L 720 300 L 760 295 L 740 240 Z" fill="#ecf0f1" stroke="#bdc3c7" stroke-width="2"/>
  <path d="M 50 200 C 50 170, 100 145, 150 145 L 700 145 C 760 145, 780 190, 780 200 C 780 210, 760 255, 700 255 L 150 255 C 100 255, 50 230, 50 200 Z" fill="white" stroke="#7f8c8d" stroke-width="3"/>
  <path d="M 70 190 C 65 190, 60 195, 60 200 C 60 205, 65 210, 70 210 C 75 210, 80 205, 80 200 C 80 195, 75 190, 70 190 Z" fill="#34495e"/>
  <line x1="250" y1="145" x2="250" y2="255" stroke="#bdc3c7" stroke-width="2" stroke-dasharray="4"/>

  <!-- ================= SEATING (IDs formatted for React) ================= -->
  
  <!-- === BUSINESS CLASS (Rows 1-3) === -->
  <g transform="translate(130, 155)">
    <!-- Row 1 -->
    <g>
      <use id="1A" href="#seat-biz" fill="white" x="0" y="0" />
      <text x="10" y="10" class="seat-label">1A</text>
    </g>
    <g transform="translate(0, 25)">
      <use id="1B" href="#seat-biz" fill="white" x="0" y="0" />
      <text x="10" y="10" class="seat-label">1B</text>
    </g>
  </g>

  <g transform="translate(170, 155)">
    <!-- Row 2 -->
    <g>
      <use id="2A" href="#seat-biz" fill="white" x="0" y="0" />
      <text x="10" y="10" class="seat-label">2A</text>
    </g>
    <g transform="translate(0, 25)">
      <use id="2B" href="#seat-biz" fill="white" x="0" y="0" />
      <text x="10" y="10" class="seat-label">2B</text>
    </g>
  </g>

  <g transform="translate(210, 155)">
    <!-- Row 3 -->
    <g>
      <use id="3A" href="#seat-biz" fill="white" x="0" y="0" />
      <text x="10" y="10" class="seat-label">3A</text>
    </g>
    <g transform="translate(0, 25)">
      <use id="3B" href="#seat-biz" fill="white" x="0" y="0" />
      <text x="10" y="10" class="seat-label">3B</text>
    </g>
  </g>

  <!-- Business Bottom (C, D) -->
  <g transform="translate(130, 225)">
    <g>
      <use id="1C" href="#seat-biz" fill="white" x="0" y="0" />
      <text x="10" y="10" class="seat-label">1C</text>
    </g>
    <g transform="translate(0, 25)">
      <use id="1D" href="#seat-biz" fill="white" x="0" y="0" />
      <text x="10" y="10" class="seat-label">1D</text>
    </g>
  </g>

  <g transform="translate(170, 225)">
    <g>
      <use id="2C" href="#seat-biz" fill="white" x="0" y="0" />
      <text x="10" y="10" class="seat-label">2C</text>
    </g>
    <g transform="translate(0, 25)">
      <use id="2D" href="#seat-biz" fill="white" x="0" y="0" />
      <text x="10" y="10" class="seat-label">2D</text>
    </g>
  </g>

  <g transform="translate(210, 225)">
    <g>
      <use id="3C" href="#seat-biz" fill="white" x="0" y="0" />
      <text x="10" y="10" class="seat-label">3C</text>
    </g>
    <g transform="translate(0, 25)">
      <use id="3D" href="#seat-biz" fill="white" x="0" y="0" />
      <text x="10" y="10" class="seat-label">3D</text>
    </g>
  </g>

  <!-- === ECONOMY CLASS (Rows 4-15) === -->
  
  <!-- ECONOMY TOP (A, B, C) -->
  <g transform="translate(265, 152)">
    <!-- Row 4 -->
    <g transform="translate(0,0)">
      <use id="4A" href="#seat-eco" fill="white" y="0" /> <text x="8" y="7" class="seat-label">4A</text>
      <use id="4B" href="#seat-eco" fill="white" y="18"/> <text x="8" y="25" class="seat-label">4B</text>
      <use id="4C" href="#seat-eco" fill="white" y="36"/> <text x="8" y="43" class="seat-label">4C</text>
    </g>
    <!-- Row 5 -->
    <g transform="translate(35,0)">
      <use id="5A" href="#seat-eco" fill="white" y="0" /> <text x="8" y="7" class="seat-label">5A</text>
      <use id="5B" href="#seat-eco" fill="white" y="18"/> <text x="8" y="25" class="seat-label">5B</text>
      <use id="5C" href="#seat-eco" fill="white" y="36"/> <text x="8" y="43" class="seat-label">5C</text>
    </g>
    <!-- Row 6 -->
    <g transform="translate(70,0)">
      <use id="6A" href="#seat-eco" fill="white" y="0" /> <text x="8" y="7" class="seat-label">6A</text>
      <use id="6B" href="#seat-eco" fill="white" y="18"/> <text x="8" y="25" class="seat-label">6B</text>
      <use id="6C" href="#seat-eco" fill="white" y="36"/> <text x="8" y="43" class="seat-label">6C</text>
    </g>
    <!-- Row 7 -->
    <g transform="translate(105,0)">
      <use id="7A" href="#seat-eco" fill="white" y="0" /> <text x="8" y="7" class="seat-label">7A</text>
      <use id="7B" href="#seat-eco" fill="white" y="18"/> <text x="8" y="25" class="seat-label">7B</text>
      <use id="7C" href="#seat-eco" fill="white" y="36"/> <text x="8" y="43" class="seat-label">7C</text>
    </g>
    <!-- Row 8 -->
    <g transform="translate(140,0)">
      <use id="8A" href="#seat-eco" fill="white" y="0" /> <text x="8" y="7" class="seat-label">8A</text>
      <use id="8B" href="#seat-eco" fill="white" y="18"/> <text x="8" y="25" class="seat-label">8B</text>
      <use id="8C" href="#seat-eco" fill="white" y="36"/> <text x="8" y="43" class="seat-label">8C</text>
    </g>
    <!-- Row 9 -->
    <g transform="translate(175,0)">
      <use id="9A" href="#seat-eco" fill="white" y="0" /> <text x="8" y="7" class="seat-label">9A</text>
      <use id="9B" href="#seat-eco" fill="white" y="18"/> <text x="8" y="25" class="seat-label">9B</text>
      <use id="9C" href="#seat-eco" fill="white" y="36"/> <text x="8" y="43" class="seat-label">9C</text>
    </g>
    
    <!-- EXIT ROW GAP -->
    
    <!-- Row 10 -->
    <g transform="translate(235,0)">
      <use id="10A" href="#seat-eco" fill="white" y="0" /> <text x="8" y="7" class="seat-label">10A</text>
      <use id="10B" href="#seat-eco" fill="white" y="18"/> <text x="8" y="25" class="seat-label">10B</text>
      <use id="10C" href="#seat-eco" fill="white" y="36"/> <text x="8" y="43" class="seat-label">10C</text>
    </g>
    <!-- Row 11 -->
    <g transform="translate(270,0)">
      <use id="11A" href="#seat-eco" fill="white" y="0" /> <text x="8" y="7" class="seat-label">11A</text>
      <use id="11B" href="#seat-eco" fill="white" y="18"/> <text x="8" y="25" class="seat-label">11B</text>
      <use id="11C" href="#seat-eco" fill="white" y="36"/> <text x="8" y="43" class="seat-label">11C</text>
    </g>
    <!-- Row 12 -->
    <g transform="translate(305,0)">
      <use id="12A" href="#seat-eco" fill="white" y="0" /> <text x="8" y="7" class="seat-label">12A</text>
      <use id="12B" href="#seat-eco" fill="white" y="18"/> <text x="8" y="25" class="seat-label">12B</text>
      <use id="12C" href="#seat-eco" fill="white" y="36"/> <text x="8" y="43" class="seat-label">12C</text>
    </g>
    <!-- Row 13 -->
    <g transform="translate(340,0)">
      <use id="13A" href="#seat-eco" fill="white" y="0" /> <text x="8" y="7" class="seat-label">13A</text>
      <use id="13B" href="#seat-eco" fill="white" y="18"/> <text x="8" y="25" class="seat-label">13B</text>
      <use id="13C" href="#seat-eco" fill="white" y="36"/> <text x="8" y="43" class="seat-label">13C</text>
    </g>
    <!-- Row 14 -->
    <g transform="translate(375,0)">
      <use id="14A" href="#seat-eco" fill="white" y="0" /> <text x="8" y="7" class="seat-label">14A</text>
      <use id="14B" href="#seat-eco" fill="white" y="18"/> <text x="8" y="25" class="seat-label">14B</text>
      <use id="14C" href="#seat-eco" fill="white" y="36"/> <text x="8" y="43" class="seat-label">14C</text>
    </g>
    <!-- Row 15 -->
    <g transform="translate(410,0)">
      <use id="15A" href="#seat-eco" fill="white" y="0" /> <text x="8" y="7" class="seat-label">15A</text>
      <use id="15B" href="#seat-eco" fill="white" y="18"/> <text x="8" y="25" class="seat-label">15B</text>
      <use id="15C" href="#seat-eco" fill="white" y="36"/> <text x="8" y="43" class="seat-label">15C</text>
    </g>
  </g>

  <!-- ECONOMY BOTTOM (D, E, F) -->
  <g transform="translate(265, 215)">
    <!-- Row 4 -->
    <g transform="translate(0,0)">
      <use id="4D" href="#seat-eco" fill="white" y="0" /> <text x="8" y="7" class="seat-label">4D</text>
      <use id="4E" href="#seat-eco" fill="white" y="18"/> <text x="8" y="25" class="seat-label">4E</text>
      <use id="4F" href="#seat-eco" fill="white" y="36"/> <text x="8" y="43" class="seat-label">4F</text>
    </g>
    <!-- Row 5 -->
    <g transform="translate(35,0)">
      <use id="5D" href="#seat-eco" fill="white" y="0" /> <text x="8" y="7" class="seat-label">5D</text>
      <use id="5E" href="#seat-eco" fill="white" y="18"/> <text x="8" y="25" class="seat-label">5E</text>
      <use id="5F" href="#seat-eco" fill="white" y="36"/> <text x="8" y="43" class="seat-label">5F</text>
    </g>
    <!-- Row 6 -->
    <g transform="translate(70,0)">
      <use id="6D" href="#seat-eco" fill="white" y="0" /> <text x="8" y="7" class="seat-label">6D</text>
      <use id="6E" href="#seat-eco" fill="white" y="18"/> <text x="8" y="25" class="seat-label">6E</text>
      <use id="6F" href="#seat-eco" fill="white" y="36"/> <text x="8" y="43" class="seat-label">6F</text>
    </g>
    <!-- Row 7 -->
    <g transform="translate(105,0)">
      <use id="7D" href="#seat-eco" fill="white" y="0" /> <text x="8" y="7" class="seat-label">7D</text>
      <use id="7E" href="#seat-eco" fill="white" y="18"/> <text x="8" y="25" class="seat-label">7E</text>
      <use id="7F" href="#seat-eco" fill="white" y="36"/> <text x="8" y="43" class="seat-label">7F</text>
    </g>
    <!-- Row 8 -->
    <g transform="translate(140,0)">
      <use id="8D" href="#seat-eco" fill="white" y="0" /> <text x="8" y="7" class="seat-label">8D</text>
      <use id="8E" href="#seat-eco" fill="white" y="18"/> <text x="8" y="25" class="seat-label">8E</text>
      <use id="8F" href="#seat-eco" fill="white" y="36"/> <text x="8" y="43" class="seat-label">8F</text>
    </g>
    <!-- Row 9 -->
    <g transform="translate(175,0)">
      <use id="9D" href="#seat-eco" fill="white" y="0" /> <text x="8" y="7" class="seat-label">9D</text>
      <use id="9E" href="#seat-eco" fill="white" y="18"/> <text x="8" y="25" class="seat-label">9E</text>
      <use id="9F" href="#seat-eco" fill="white" y="36"/> <text x="8" y="43" class="seat-label">9F</text>
    </g>
    
    <!-- EXIT ROW GAP -->
    
    <!-- Row 10 -->
    <g transform="translate(235,0)">
      <use id="10D" href="#seat-eco" fill="white" y="0" /> <text x="8" y="7" class="seat-label">10D</text>
      <use id="10E" href="#seat-eco" fill="white" y="18"/> <text x="8" y="25" class="seat-label">10E</text>
      <use id="10F" href="#seat-eco" fill="white" y="36"/> <text x="8" y="43" class="seat-label">10F</text>
    </g>
    <!-- Row 11 -->
    <g transform="translate(270,0)">
      <use id="11D" href="#seat-eco" fill="white" y="0" /> <text x="8" y="7" class="seat-label">11D</text>
      <use id="11E" href="#seat-eco" fill="white" y="18"/> <text x="8" y="25" class="seat-label">11E</text>
      <use id="11F" href="#seat-eco" fill="white" y="36"/> <text x="8" y="43" class="seat-label">11F</text>
    </g>
    <!-- Row 12 -->
    <g transform="translate(305,0)">
      <use id="12D" href="#seat-eco" fill="white" y="0" /> <text x="8" y="7" class="seat-label">12D</text>
      <use id="12E" href="#seat-eco" fill="white" y="18"/> <text x="8" y="25" class="seat-label">12E</text>
      <use id="12F" href="#seat-eco" fill="white" y="36"/> <text x="8" y="43" class="seat-label">12F</text>
    </g>
    <!-- Row 13 -->
    <g transform="translate(340,0)">
      <use id="13D" href="#seat-eco" fill="white" y="0" /> <text x="8" y="7" class="seat-label">13D</text>
      <use id="13E" href="#seat-eco" fill="white" y="18"/> <text x="8" y="25" class="seat-label">13E</text>
      <use id="13F" href="#seat-eco" fill="white" y="36"/> <text x="8" y="43" class="seat-label">13F</text>
    </g>
    <!-- Row 14 -->
    <g transform="translate(375,0)">
      <use id="14D" href="#seat-eco" fill="white" y="0" /> <text x="8" y="7" class="seat-label">14D</text>
      <use id="14E" href="#seat-eco" fill="white" y="18"/> <text x="8" y="25" class="seat-label">14E</text>
      <use id="14F" href="#seat-eco" fill="white" y="36"/> <text x="8" y="43" class="seat-label">14F</text>
    </g>
    <!-- Row 15 -->
    <g transform="translate(410,0)">
      <use id="15D" href="#seat-eco" fill="white" y="0" /> <text x="8" y="7" class="seat-label">15D</text>
      <use id="15E" href="#seat-eco" fill="white" y="18"/> <text x="8" y="25" class="seat-label">15E</text>
      <use id="15F" href="#seat-eco" fill="white" y="36"/> <text x="8" y="43" class="seat-label">15F</text>
    </g>
  </g>

  <!-- Rear Galleys -->
  <rect x="710" y="150" width="10" height="30" fill="#ecf0f1" stroke="#bdc3c7"/>
  <rect x="710" y="220" width="10" height="30" fill="#ecf0f1" stroke="#bdc3c7"/>

</svg>